<svg xmlns="http://www.w3.org/2000/svg" xmlns:xlink="http://www.w3.org/1999/xlink" width="840" height="148.55"><rect width="840" height="148.55" rx="0" ry="0" class="a"></rect><svg height="108.55000000000001" viewBox="0 0 80 10.855" width="800" x="20" xmlns="http://www.w3.org/2000/svg" xmlns:xlink="http://www.w3.org/1999/xlink" y="20"><style>.a{fill:rgb(40,45,53)}.b{font-family:'Fira Code',Monaco,Consolas,Menlo,'Bitstream Vera Sans Mono','Powerline Symbols',monospace}.c{fill:transparent}.d{fill:rgb(185,192,203);white-space:pre}</style><g font-family="&#x27;Fira Code&#x27;,Monaco,Consolas,Menlo,&#x27;Bitstream Vera Sans Mono&#x27;,&#x27;Powerline Symbols&#x27;,monospace" font-size="1.67" class="b"><defs><symbol id="a"><rect height="5" width="80" x="0" y="0" class="c"></rect></symbol></defs><rect height="10.855" width="80" class="a"></rect><svg x="0" y="0" width="80"><svg x="0"><use xlink:href="#a"></use><text font-size="1.67" x="0" y="1.67" class="d">Error</text><text font-size="1.67" x="6.012" y="1.67" class="d">in</text><text font-size="1.67" x="9.017999999999999" y="1.67" class="d">p3</text><text font-size="1.67" x="12.024" y="1.67" class="d">%&gt;%</text><text font-size="1.67" x="16.032" y="1.67" class="d">add_boundary_penalties(penalty</text><text font-size="1.67" x="47.093999999999994" y="1.67" class="d">=</text><text font-size="1.67" x="49.098" y="1.67" class="d">0.003,</text><text font-size="1.67" x="56.111999999999995" y="1.67" class="d">edge_factor</text><text font-size="1.67" x="68.136" y="1.67" class="d">=</text><text font-size="1.67" x="70.13999999999999" y="1.67" class="d">0.5)</text><text font-size="1.67" x="75.14999999999999" y="1.67" class="d">:</text><text font-size="1.67" x="2.004" y="3.8409999999999997" class="d">could</text><text font-size="1.67" x="8.016" y="3.8409999999999997" class="d">not</text><text font-size="1.67" x="12.024" y="3.8409999999999997" class="d">find</text><text font-size="1.67" x="17.034" y="3.8409999999999997" class="d">function</text><text font-size="1.67" x="26.052" y="3.8409999999999997" class="d">&quot;%&gt;%&quot;</text><text font-size="1.67" x="0" y="6.012" class="d">Error</text><text font-size="1.67" x="6.012" y="6.012" class="d">in</text><text font-size="1.67" x="9.017999999999999" y="6.012" class="d">solve(p4)</text><text font-size="1.67" x="19.037999999999997" y="6.012" class="d">:</text><text font-size="1.67" x="21.041999999999998" y="6.012" class="d">object</text><text font-size="1.67" x="28.055999999999997" y="6.012" class="d">&#x27;p4&#x27;</text><text font-size="1.67" x="33.065999999999995" y="6.012" class="d">not</text><text font-size="1.67" x="37.074" y="6.012" class="d">found</text><text font-size="1.67" x="0" y="8.183" class="d">Error</text><text font-size="1.67" x="6.012" y="8.183" class="d">in</text><text font-size="1.67" x="9.017999999999999" y="8.183" class="d">plot(s4,</text><text font-size="1.67" x="18.035999999999998" y="8.183" class="d">main</text><text font-size="1.67" x="23.045999999999996" y="8.183" class="d">=</text><text font-size="1.67" x="25.05" y="8.183" class="d">&quot;Solution&quot;,</text><text font-size="1.67" x="37.074" y="8.183" class="d">axes</text><text font-size="1.67" x="42.083999999999996" y="8.183" class="d">=</text><text font-size="1.67" x="44.087999999999994" y="8.183" class="d">FALSE)</text><text font-size="1.67" x="51.102" y="8.183" class="d">:</text><text font-size="1.67" x="2.004" y="10.354" class="d">object</text><text font-size="1.67" x="9.017999999999999" y="10.354" class="d">&#x27;s4&#x27;</text><text font-size="1.67" x="14.027999999999999" y="10.354" class="d">not</text><text font-size="1.67" x="18.035999999999998" y="10.354" class="d">found</text></svg></svg></g></svg></svg>