<svg xmlns="http://www.w3.org/2000/svg" xmlns:xlink="http://www.w3.org/1999/xlink" width="840" height="170.26"><rect width="840" height="170.26" rx="0" ry="0" class="a"></rect><svg height="130.26" viewBox="0 0 80 13.026" width="800" x="20" xmlns="http://www.w3.org/2000/svg" xmlns:xlink="http://www.w3.org/1999/xlink" y="20"><style>.a{fill:rgb(40,45,53)}.b{font-family:'Fira Code',Monaco,Consolas,Menlo,'Bitstream Vera Sans Mono','Powerline Symbols',monospace}.c{fill:transparent}.d{fill:rgb(185,192,203);white-space:pre}</style><g font-family="&#x27;Fira Code&#x27;,Monaco,Consolas,Menlo,&#x27;Bitstream Vera Sans Mono&#x27;,&#x27;Powerline Symbols&#x27;,monospace" font-size="1.67" class="b"><defs><symbol id="a"><rect height="6" width="80" x="0" y="0" class="c"></rect></symbol></defs><rect height="13.026" width="80" class="a"></rect><svg x="0" y="0" width="80"><svg x="0"><use xlink:href="#a"></use><text font-size="1.67" x="0" y="1.67" class="d">Error</text><text font-size="1.67" x="6.012" y="1.67" class="d">in</text><text font-size="1.67" x="9.017999999999999" y="1.67" class="d">solve(p1)</text><text font-size="1.67" x="19.037999999999997" y="1.67" class="d">:</text><text font-size="1.67" x="21.041999999999998" y="1.67" class="d">object</text><text font-size="1.67" x="28.055999999999997" y="1.67" class="d">&#x27;p1&#x27;</text><text font-size="1.67" x="33.065999999999995" y="1.67" class="d">not</text><text font-size="1.67" x="37.074" y="1.67" class="d">found</text><text font-size="1.67" x="0" y="3.8409999999999997" class="d">Error</text><text font-size="1.67" x="6.012" y="3.8409999999999997" class="d">in</text><text font-size="1.67" x="9.017999999999999" y="3.8409999999999997" class="d">print(attr(s1,</text><text font-size="1.67" x="24.048" y="3.8409999999999997" class="d">&quot;objective&quot;))</text><text font-size="1.67" x="38.07599999999999" y="3.8409999999999997" class="d">:</text><text font-size="1.67" x="40.08" y="3.8409999999999997" class="d">object</text><text font-size="1.67" x="47.093999999999994" y="3.8409999999999997" class="d">&#x27;s1&#x27;</text><text font-size="1.67" x="52.104" y="3.8409999999999997" class="d">not</text><text font-size="1.67" x="56.111999999999995" y="3.8409999999999997" class="d">found</text><text font-size="1.67" x="0" y="6.012" class="d">Error</text><text font-size="1.67" x="6.012" y="6.012" class="d">in</text><text font-size="1.67" x="9.017999999999999" y="6.012" class="d">print(attr(s1,</text><text font-size="1.67" x="24.048" y="6.012" class="d">&quot;runtime&quot;))</text><text font-size="1.67" x="36.071999999999996" y="6.012" class="d">:</text><text font-size="1.67" x="38.07599999999999" y="6.012" class="d">object</text><text font-size="1.67" x="45.089999999999996" y="6.012" class="d">&#x27;s1&#x27;</text><text font-size="1.67" x="50.1" y="6.012" class="d">not</text><text font-size="1.67" x="54.108" y="6.012" class="d">found</text><text font-size="1.67" x="0" y="8.183" class="d">Error</text><text font-size="1.67" x="6.012" y="8.183" class="d">in</text><text font-size="1.67" x="9.017999999999999" y="8.183" class="d">print(attr(s1,</text><text font-size="1.67" x="24.048" y="8.183" class="d">&quot;status&quot;))</text><text font-size="1.67" x="35.06999999999999" y="8.183" class="d">:</text><text font-size="1.67" x="37.074" y="8.183" class="d">object</text><text font-size="1.67" x="44.087999999999994" y="8.183" class="d">&#x27;s1&#x27;</text><text font-size="1.67" x="49.098" y="8.183" class="d">not</text><text font-size="1.67" x="53.105999999999995" y="8.183" class="d">found</text><text font-size="1.67" x="0" y="10.354" class="d">Error</text><text font-size="1.67" x="6.012" y="10.354" class="d">in</text><text font-size="1.67" x="9.017999999999999" y="10.354" class="d">plot(s1,</text><text font-size="1.67" x="18.035999999999998" y="10.354" class="d">main</text><text font-size="1.67" x="23.045999999999996" y="10.354" class="d">=</text><text font-size="1.67" x="25.05" y="10.354" class="d">&quot;Solution&quot;,</text><text font-size="1.67" x="37.074" y="10.354" class="d">axes</text><text font-size="1.67" x="42.083999999999996" y="10.354" class="d">=</text><text font-size="1.67" x="44.087999999999994" y="10.354" class="d">FALSE)</text><text font-size="1.67" x="51.102" y="10.354" class="d">:</text><text font-size="1.67" x="2.004" y="12.525" class="d">object</text><text font-size="1.67" x="9.017999999999999" y="12.525" class="d">&#x27;s1&#x27;</text><text font-size="1.67" x="14.027999999999999" y="12.525" class="d">not</text><text font-size="1.67" x="18.035999999999998" y="12.525" class="d">found</text></svg></svg></g></svg></svg>